<svg viewBox="0 0 65 201" fill="none" xmlns="http://www.w3.org/2000/svg">
<path d="M64.0502 0.725398C53.3527 0.725398 40.9974 -0.226783 31.1638 4.1437C21.9339 8.24588 5.92042 16.1266 14.1902 28.0718C17.2958 32.5577 23.9175 38.5828 14.7795 41.0377C12.4082 41.6748 2.61598 42.1213 0.98847 43.7488C-1.14397 45.8812 4.60809 50.2398 5.46762 51.6463C7.35168 54.7293 10.5928 61.9114 11.0076 65.4373C11.7633 71.8607 16.7758 79.4665 18.964 85.5935C21.1669 91.7617 17.2314 96.4595 13.7187 100.976C9.86413 105.932 8.88592 112.748 8.88592 118.951C8.88592 122.509 9.04597 122.677 12.0685 124.02C14.9804 125.314 14.4542 128.303 14.1312 131.21C13.765 134.506 11.0076 136.587 11.0076 139.697C11.0076 143.558 13.327 143.74 16.3119 146.062C24.3882 152.344 16.422 156.302 11.597 162.505C7.57555 167.676 3.38666 173.597 8.35549 178.948C15.7509 186.913 27.6425 193.548 38.0593 195.863C43.8085 197.141 50.3597 200.165 56.6242 200.165" stroke="white" stroke-linecap="round"/>
</svg>
